<svg width="594" height="594" viewBox="0 0 594 594" fill="none" xmlns="http://www.w3.org/2000/svg">
<path d="M353.145 171.671C356.787 160.366 353.535 149.754 338.676 133.996C323.803 149.754 320.594 160.366 324.237 171.671H353.145Z" fill="#F3F1EE"/>
<path d="M313.188 522.452C313.188 529.839 308.23 536.013 301.466 537.979V349.212C311.67 347.13 319.302 338.138 319.302 327.353C319.302 315.006 309.328 305.002 296.941 305.002C284.583 305.002 274.625 315.006 274.625 327.353C274.625 338.138 282.256 347.13 292.432 349.212V537.979C285.667 536.027 280.695 529.854 280.695 522.452C280.695 518.967 281.794 515.787 283.658 513.141L184.634 298.222C226.854 253.462 234.515 233.974 222.186 201.634H371.726C359.382 233.974 367.043 253.462 409.263 298.222L310.268 513.141C312.104 515.787 313.188 518.967 313.188 522.452ZM255.314 133.974C240.456 149.747 237.117 160.358 240.745 171.664H269.797C273.439 160.358 270.187 149.747 255.314 133.974L297.028 69.9725L338.684 133.96L396.992 86.15C396.977 86.1645 368.329 134.292 374.414 171.664H378.028C384.084 171.664 388.998 176.117 388.998 181.582C388.998 187.075 384.084 191.514 378.028 191.514H215.869C209.799 191.514 204.884 187.075 204.884 181.582C204.884 176.117 209.799 171.664 215.869 171.664H219.468C225.554 134.292 196.906 86.1645 196.891 86.15L255.314 133.974ZM296.956 0C133.207 0 0 133.222 0 296.993C0 460.778 133.207 594 296.956 594C460.69 594 593.883 460.778 593.883 296.993C593.883 133.222 460.69 0 296.956 0Z" fill="#F3F1EE"/>
</svg>
